# xmcd
# 
# Track frame offsets:
#     150
#     21894
#     39408
#     57506
#     74401
#     93258
#     115968
#     140463
#     163385
#     183849
#     205486
# 
# Disc length: 2921
# 
# Revision: 1
# Processed by: cddbd v1.5.2PL0 Copyright (c) Steve Scherf et al.
# Submitted via: fre:ac v1.0.31
# 
DISCID=a00b670b
DTITLE=Various Artist - 冴えない彼女の育てかた ギャルゲーカバーソングコレクション Disc1
DYEAR=2019
DGENRE=Anime
TTITLE0=加藤 恵（CV.安野希世乃） - Leaf ticket
TTITLE1=澤村・スペンサー・英梨々（CV.大西沙織） - 勇気の神様
TTITLE2=霞ヶ丘詩羽（CV.茅野愛衣） - you(Vocal)
TTITLE3=氷堂美智留（CV.矢作紗友里） - グリーングリーン
TTITLE4=波島出海（CV.赤﨑千夏） - Heart To Heart
TTITLE5=加藤 恵（CV.安野希世乃） - 季節を抱きしめて
TTITLE6=澤村・スペンサー・英梨々（CV.大西沙織） - allegretto ～そらときみ～
TTITLE7=霞ヶ丘詩羽（CV.茅野愛衣） - 届かない恋
TTITLE8=美智留（CV.矢作紗友里） - Little Busters!
TTITLE9=波島出海（CV.赤﨑千夏） - true my heart
TTITLE10=加藤 恵（CV.安野希世乃）＆澤村・スペンサー・英梨々（CV.大西沙織）＆霞ヶ丘詩羽（CV.茅野愛衣）＆波島出海（CV.赤﨑千夏）＆氷堂美智留（CV.矢作紗友里） - 檄！帝国華撃団
EXTD=
EXTT0=
EXTT1=
EXTT2=
EXTT3=
EXTT4=
EXTT5=
EXTT6=
EXTT7=
EXTT8=
EXTT9=
EXTT10=
PLAYORDER=
